<svg width="409" height="73" viewBox="0 0 409 73" fill="none" xmlns="http://www.w3.org/2000/svg">
<mask id="path-1-inside-1_60_3" fill="white">
<path d="M55.7105 0.800016H44.3105L27.9105 52.6L11.5105 0.800016H0.310547L23.7105 72H32.1105L55.7105 0.800016ZM111.056 72V62.3H76.3559V40.9H105.956V31.3H76.3559V10.5H111.056V0.800016H65.5559V72H111.056ZM170.31 51.7C170.31 48.6333 169.81 45.8667 168.81 43.4C167.876 40.9333 166.443 38.8333 164.51 37.1C162.976 35.7667 161.21 34.7 159.21 33.9C157.21 33.0333 154.543 32.3333 151.21 31.8L143.11 30.6C139.643 30.0667 136.976 28.9667 135.11 27.3C134.176 26.4333 133.476 25.4667 133.01 24.4C132.61 23.2667 132.41 22.0333 132.41 20.7C132.41 17.5 133.51 14.8667 135.71 12.8C137.976 10.6667 141.21 9.60002 145.41 9.60002C148.41 9.60002 151.176 10 153.71 10.8C156.31 11.5333 158.71 12.9667 160.91 15.1L167.81 8.30002C164.743 5.43335 161.476 3.36668 158.01 2.10001C154.543 0.833345 150.443 0.200012 145.71 0.200012C141.976 0.200012 138.643 0.700013 135.71 1.70002C132.776 2.70002 130.276 4.13335 128.21 6.00002C126.21 7.86668 124.643 10.1 123.51 12.7C122.443 15.2333 121.91 18.0333 121.91 21.1C121.91 26.9 123.643 31.4333 127.11 34.7C130.31 37.7 134.81 39.6 140.61 40.4L149.01 41.6C151.143 41.9333 152.743 42.3 153.81 42.7C154.876 43.1 155.876 43.7333 156.81 44.6C158.676 46.2667 159.61 48.7333 159.61 52C159.61 55.4667 158.31 58.1667 155.71 60.1C153.176 61.9667 149.576 62.9 144.91 62.9C141.243 62.9 137.943 62.4333 135.01 61.5C132.076 60.5 129.31 58.7 126.71 56.1L119.51 63.2C122.91 66.6667 126.61 69.1 130.61 70.5C134.61 71.9 139.31 72.6 144.71 72.6C148.443 72.6 151.876 72.1333 155.01 71.2C158.143 70.2667 160.843 68.9 163.11 67.1C165.376 65.3 167.143 63.1 168.41 60.5C169.676 57.9 170.31 54.9667 170.31 51.7ZM228.494 10.5V0.800016H178.494V10.5H198.094V72H208.894V10.5H228.494ZM285.851 72V62.3H251.551V0.800016H240.751V72H285.851ZM346.025 48V0.800016H335.225V47.5C335.225 52.3 333.858 56.0667 331.125 58.8C328.458 61.5333 324.891 62.9 320.425 62.9C315.958 62.9 312.391 61.5333 309.725 58.8C307.058 56.0667 305.725 52.3 305.725 47.5V0.800016H294.925V48C294.925 51.6667 295.558 55.0333 296.825 58.1C298.158 61.1 299.958 63.6667 302.225 65.8C304.491 67.9333 307.191 69.6 310.325 70.8C313.458 72 316.825 72.6 320.425 72.6C324.025 72.6 327.391 72 330.525 70.8C333.658 69.6 336.358 67.9333 338.625 65.8C340.958 63.6667 342.758 61.1 344.025 58.1C345.358 55.0333 346.025 51.6667 346.025 48ZM408.005 51.7C408.005 48.6333 407.505 45.8667 406.505 43.4C405.572 40.9333 404.138 38.8333 402.205 37.1C400.672 35.7667 398.905 34.7 396.905 33.9C394.905 33.0333 392.238 32.3333 388.905 31.8L380.805 30.6C377.338 30.0667 374.672 28.9667 372.805 27.3C371.872 26.4333 371.172 25.4667 370.705 24.4C370.305 23.2667 370.105 22.0333 370.105 20.7C370.105 17.5 371.205 14.8667 373.405 12.8C375.672 10.6667 378.905 9.60002 383.105 9.60002C386.105 9.60002 388.872 10 391.405 10.8C394.005 11.5333 396.405 12.9667 398.605 15.1L405.505 8.30002C402.438 5.43335 399.172 3.36668 395.705 2.10001C392.238 0.833345 388.138 0.200012 383.405 0.200012C379.672 0.200012 376.338 0.700013 373.405 1.70002C370.472 2.70002 367.972 4.13335 365.905 6.00002C363.905 7.86668 362.338 10.1 361.205 12.7C360.138 15.2333 359.605 18.0333 359.605 21.1C359.605 26.9 361.338 31.4333 364.805 34.7C368.005 37.7 372.505 39.6 378.305 40.4L386.705 41.6C388.838 41.9333 390.438 42.3 391.505 42.7C392.572 43.1 393.572 43.7333 394.505 44.6C396.372 46.2667 397.305 48.7333 397.305 52C397.305 55.4667 396.005 58.1667 393.405 60.1C390.872 61.9667 387.272 62.9 382.605 62.9C378.938 62.9 375.638 62.4333 372.705 61.5C369.772 60.5 367.005 58.7 364.405 56.1L357.205 63.2C360.605 66.6667 364.305 69.1 368.305 70.5C372.305 71.9 377.005 72.6 382.405 72.6C386.138 72.6 389.572 72.1333 392.705 71.2C395.838 70.2667 398.538 68.9 400.805 67.1C403.072 65.3 404.838 63.1 406.105 60.5C407.372 57.9 408.005 54.9667 408.005 51.7Z"/>
</mask>
<path d="M55.7105 0.800016H44.3105L27.9105 52.6L11.5105 0.800016H0.310547L23.7105 72H32.1105L55.7105 0.800016ZM111.056 72V62.3H76.3559V40.9H105.956V31.3H76.3559V10.5H111.056V0.800016H65.5559V72H111.056ZM170.31 51.7C170.31 48.6333 169.81 45.8667 168.81 43.4C167.876 40.9333 166.443 38.8333 164.51 37.1C162.976 35.7667 161.21 34.7 159.21 33.9C157.21 33.0333 154.543 32.3333 151.21 31.8L143.11 30.6C139.643 30.0667 136.976 28.9667 135.11 27.3C134.176 26.4333 133.476 25.4667 133.01 24.4C132.61 23.2667 132.41 22.0333 132.41 20.7C132.41 17.5 133.51 14.8667 135.71 12.8C137.976 10.6667 141.21 9.60002 145.41 9.60002C148.41 9.60002 151.176 10 153.71 10.8C156.31 11.5333 158.71 12.9667 160.91 15.1L167.81 8.30002C164.743 5.43335 161.476 3.36668 158.01 2.10001C154.543 0.833345 150.443 0.200012 145.71 0.200012C141.976 0.200012 138.643 0.700013 135.71 1.70002C132.776 2.70002 130.276 4.13335 128.21 6.00002C126.21 7.86668 124.643 10.1 123.51 12.7C122.443 15.2333 121.91 18.0333 121.91 21.1C121.91 26.9 123.643 31.4333 127.11 34.7C130.31 37.7 134.81 39.6 140.61 40.4L149.01 41.6C151.143 41.9333 152.743 42.3 153.81 42.7C154.876 43.1 155.876 43.7333 156.81 44.6C158.676 46.2667 159.61 48.7333 159.61 52C159.61 55.4667 158.31 58.1667 155.71 60.1C153.176 61.9667 149.576 62.9 144.91 62.9C141.243 62.9 137.943 62.4333 135.01 61.5C132.076 60.5 129.31 58.7 126.71 56.1L119.51 63.2C122.91 66.6667 126.61 69.1 130.61 70.5C134.61 71.9 139.31 72.6 144.71 72.6C148.443 72.6 151.876 72.1333 155.01 71.2C158.143 70.2667 160.843 68.9 163.11 67.1C165.376 65.3 167.143 63.1 168.41 60.5C169.676 57.9 170.31 54.9667 170.31 51.7ZM228.494 10.5V0.800016H178.494V10.5H198.094V72H208.894V10.5H228.494ZM285.851 72V62.3H251.551V0.800016H240.751V72H285.851ZM346.025 48V0.800016H335.225V47.5C335.225 52.3 333.858 56.0667 331.125 58.8C328.458 61.5333 324.891 62.9 320.425 62.9C315.958 62.9 312.391 61.5333 309.725 58.8C307.058 56.0667 305.725 52.3 305.725 47.5V0.800016H294.925V48C294.925 51.6667 295.558 55.0333 296.825 58.1C298.158 61.1 299.958 63.6667 302.225 65.8C304.491 67.9333 307.191 69.6 310.325 70.8C313.458 72 316.825 72.6 320.425 72.6C324.025 72.6 327.391 72 330.525 70.8C333.658 69.6 336.358 67.9333 338.625 65.8C340.958 63.6667 342.758 61.1 344.025 58.1C345.358 55.0333 346.025 51.6667 346.025 48ZM408.005 51.7C408.005 48.6333 407.505 45.8667 406.505 43.4C405.572 40.9333 404.138 38.8333 402.205 37.1C400.672 35.7667 398.905 34.7 396.905 33.9C394.905 33.0333 392.238 32.3333 388.905 31.8L380.805 30.6C377.338 30.0667 374.672 28.9667 372.805 27.3C371.872 26.4333 371.172 25.4667 370.705 24.4C370.305 23.2667 370.105 22.0333 370.105 20.7C370.105 17.5 371.205 14.8667 373.405 12.8C375.672 10.6667 378.905 9.60002 383.105 9.60002C386.105 9.60002 388.872 10 391.405 10.8C394.005 11.5333 396.405 12.9667 398.605 15.1L405.505 8.30002C402.438 5.43335 399.172 3.36668 395.705 2.10001C392.238 0.833345 388.138 0.200012 383.405 0.200012C379.672 0.200012 376.338 0.700013 373.405 1.70002C370.472 2.70002 367.972 4.13335 365.905 6.00002C363.905 7.86668 362.338 10.1 361.205 12.7C360.138 15.2333 359.605 18.0333 359.605 21.1C359.605 26.9 361.338 31.4333 364.805 34.7C368.005 37.7 372.505 39.6 378.305 40.4L386.705 41.6C388.838 41.9333 390.438 42.3 391.505 42.7C392.572 43.1 393.572 43.7333 394.505 44.6C396.372 46.2667 397.305 48.7333 397.305 52C397.305 55.4667 396.005 58.1667 393.405 60.1C390.872 61.9667 387.272 62.9 382.605 62.9C378.938 62.9 375.638 62.4333 372.705 61.5C369.772 60.5 367.005 58.7 364.405 56.1L357.205 63.2C360.605 66.6667 364.305 69.1 368.305 70.5C372.305 71.9 377.005 72.6 382.405 72.6C386.138 72.6 389.572 72.1333 392.705 71.2C395.838 70.2667 398.538 68.9 400.805 67.1C403.072 65.3 404.838 63.1 406.105 60.5C407.372 57.9 408.005 54.9667 408.005 51.7Z" stroke="black" stroke-width="6" mask="url(#path-1-inside-1_60_3)"/>
</svg>
